# xmcd CD database file
#
# Track frame offsets:
#	150
#	17508
#	39762
#	60494
#	74822
#	90411
#	115146
#	134211
#	152053
#	169470
#	184117
#	204097
#
# Disc length: 2901 seconds
#
# Revision: 0
# Processed by: cddbd v1.5.2PL0 Copyright (c) Steve Scherf et al.
# Submitted via: CDex 1.51
#
DISCID=a00b530c
DTITLE=Fat Tuesday - On the Right Track
DYEAR=2003
DGENRE=Blues
TTITLE0=After Work Jump (aka Where's Chewy)
TTITLE1=Sick-N-Tired
TTITLE2=Big Boss Man
TTITLE3=Chicken Fried Snake
TTITLE4=Key To The Highway
TTITLE5=Please Send Me Someone To Love
TTITLE6=Worried Life Blues
TTITLE7=Trouble In Mind
TTITLE8=Reconsider Baby
TTITLE9=Next Time You See Me
TTITLE10=Five Long Years
TTITLE11=Blueberry Hill
EXTD=YEAR: 2003
EXTT0=
EXTT1=
EXTT2=
EXTT3=
EXTT4=
EXTT5=
EXTT6=
EXTT7=
EXTT8=
EXTT9=
EXTT10=
EXTT11=
PLAYORDER=
